<svg viewBox="0 0 1000 640" xmlns="http://www.w3.org/2000/svg" font-family="Segoe UI, Helvetica, Arial, sans-serif">
  <defs>
    <filter id="shadow3" x="-20%" y="-20%" width="140%" height="140%">
      <feDropShadow dx="0" dy="3" stdDeviation="5" flood-color="#000" flood-opacity="0.3"/>
    </filter>
  </defs>

  <rect x="0" y="0" width="1000" height="640" fill="#12161f"/>
  <text x="500" y="42" text-anchor="middle" fill="#f4f6fb" font-size="24" font-weight="700">Gold Layer — Star Schema</text>
  <text x="500" y="65" text-anchor="middle" fill="#8892a6" font-size="13">gold.dim_customers · gold.dim_products · gold.fact_sales</text>

  <!-- fact_sales center -->
  <g filter="url(#shadow3)">
    <rect x="360" y="230" width="280" height="230" rx="12" fill="#ffd66b"/>
    <rect x="360" y="230" width="280" height="36" rx="12" fill="#e0a80f"/>
  </g>
  <text x="500" y="254" text-anchor="middle" fill="#3d2c02" font-size="15" font-weight="800">gold.fact_sales</text>
  <text x="382" y="285" fill="#3d2c02" font-size="11.5">order_number</text>
  <text x="382" y="305" fill="#3d2c02" font-size="11.5" font-weight="700">product_key (FK)</text>
  <text x="382" y="325" fill="#3d2c02" font-size="11.5" font-weight="700">customer_key (FK)</text>
  <text x="382" y="345" fill="#3d2c02" font-size="11.5">order_date</text>
  <text x="382" y="365" fill="#3d2c02" font-size="11.5">shipping_date</text>
  <text x="382" y="385" fill="#3d2c02" font-size="11.5">due_date</text>
  <text x="382" y="405" fill="#3d2c02" font-size="11.5">sales_amount</text>
  <text x="382" y="425" fill="#3d2c02" font-size="11.5">quantity</text>
  <text x="382" y="445" fill="#3d2c02" font-size="11.5">price</text>

  <!-- dim_customers -->
  <g filter="url(#shadow3)">
    <rect x="30" y="60" width="290" height="260" rx="12" fill="#d9d9e3"/>
    <rect x="30" y="60" width="290" height="36" rx="12" fill="#9a9aa8"/>
  </g>
  <text x="175" y="84" text-anchor="middle" fill="#22242c" font-size="15" font-weight="800">gold.dim_customers</text>
  <text x="52" y="118" fill="#22242c" font-size="11.5" font-weight="700">customer_key (PK)</text>
  <text x="52" y="138" fill="#22242c" font-size="11.5">customer_id</text>
  <text x="52" y="158" fill="#22242c" font-size="11.5">customer_number</text>
  <text x="52" y="178" fill="#22242c" font-size="11.5">first_name / last_name</text>
  <text x="52" y="198" fill="#22242c" font-size="11.5">country</text>
  <text x="52" y="218" fill="#22242c" font-size="11.5">marital_status</text>
  <text x="52" y="238" fill="#22242c" font-size="11.5">gender</text>
  <text x="52" y="258" fill="#22242c" font-size="11.5">birthdate</text>
  <text x="52" y="278" fill="#22242c" font-size="11.5">create_date</text>

  <!-- dim_products -->
  <g filter="url(#shadow3)">
    <rect x="680" y="60" width="290" height="260" rx="12" fill="#d9d9e3"/>
    <rect x="680" y="60" width="290" height="36" rx="12" fill="#9a9aa8"/>
  </g>
  <text x="825" y="84" text-anchor="middle" fill="#22242c" font-size="15" font-weight="800">gold.dim_products</text>
  <text x="702" y="118" fill="#22242c" font-size="11.5" font-weight="700">product_key (PK)</text>
  <text x="702" y="138" fill="#22242c" font-size="11.5">product_id</text>
  <text x="702" y="158" fill="#22242c" font-size="11.5">product_number</text>
  <text x="702" y="178" fill="#22242c" font-size="11.5">product_name</text>
  <text x="702" y="198" fill="#22242c" font-size="11.5">category_id / category</text>
  <text x="702" y="218" fill="#22242c" font-size="11.5">subcategory</text>
  <text x="702" y="238" fill="#22242c" font-size="11.5">maintenance</text>
  <text x="702" y="258" fill="#22242c" font-size="11.5">cost</text>
  <text x="702" y="278" fill="#22242c" font-size="11.5">product_line</text>
  <text x="702" y="298" fill="#22242c" font-size="11.5">start_date</text>

  <!-- connectors -->
  <line x1="320" y1="140" x2="420" y2="300" stroke="#f4f6fb" stroke-width="2"/>
  <circle cx="320" cy="140" r="4" fill="#f4f6fb"/>
  <circle cx="420" cy="300" r="4" fill="#f4f6fb"/>
  <text x="345" y="215" fill="#c7ccd8" font-size="11" transform="rotate(-49 345 215)">1 : N</text>

  <line x1="680" y1="140" x2="580" y2="300" stroke="#f4f6fb" stroke-width="2"/>
  <circle cx="680" cy="140" r="4" fill="#f4f6fb"/>
  <circle cx="580" cy="300" r="4" fill="#f4f6fb"/>
  <text x="640" y="215" fill="#c7ccd8" font-size="11" transform="rotate(49 640 215)">1 : N</text>

  <text x="500" y="520" text-anchor="middle" fill="#8892a6" font-size="12">Surrogate keys generated with ROW_NUMBER() OVER(...) inside each view definition</text>
  <text x="500" y="545" text-anchor="middle" fill="#5b6377" font-size="11">Source: /Datawarehouse/scripts./gold/ddl_gold.sql</text>
</svg>
